<?xml version="1.0" encoding="UTF-8" standalone="no"?>
<!-- Created with Inkscape (http://www.inkscape.org/) -->

<svg
   width="210mm"
   height="297mm"
   viewBox="0 0 210 297"
   version="1.1"
   id="svg1"
   xml:space="preserve"
   inkscape:version="1.4 (86a8ad7, 2024-10-11)"
   sodipodi:docname="The horror vault.svg"
   xmlns:inkscape="http://www.inkscape.org/namespaces/inkscape"
   xmlns:sodipodi="http://sodipodi.sourceforge.net/DTD/sodipodi-0.dtd"
   xmlns="http://www.w3.org/2000/svg"
   xmlns:svg="http://www.w3.org/2000/svg"><sodipodi:namedview
     id="namedview1"
     pagecolor="#ffffff"
     bordercolor="#000000"
     borderopacity="0.25"
     inkscape:showpageshadow="2"
     inkscape:pageopacity="0.0"
     inkscape:pagecheckerboard="0"
     inkscape:deskcolor="#d1d1d1"
     inkscape:document-units="mm"
     inkscape:zoom="0.71891835"
     inkscape:cx="437.46275"
     inkscape:cy="561.25984"
     inkscape:window-width="1920"
     inkscape:window-height="1009"
     inkscape:window-x="1912"
     inkscape:window-y="3"
     inkscape:window-maximized="1"
     inkscape:current-layer="layer1" /><defs
     id="defs1" /><g
     inkscape:label="Calque 1"
     inkscape:groupmode="layer"
     id="layer1"><path
       style="fill:#ccc9c3;fill-opacity:1;stroke-width:0.633488"
       d="m 142.60816,165.24382 c -0.99866,-1.76298 -1.36359,-3.08069 -3.24506,-11.71754 -0.94892,-4.35599 -1.8776,-8.49421 -2.68963,-11.98508 -0.50043,-2.1513 -0.68615,-2.69853 -1.14405,-3.37081 -0.30064,-0.44141 -0.49472,-0.81465 -0.43129,-0.82942 0.0634,-0.0148 1.04629,-0.0388 2.18413,-0.0535 1.79568,-0.0231 2.05677,0.0157 1.97766,0.29439 -0.0502,0.17656 -0.11477,0.81173 -0.14363,1.41151 -0.0417,0.86838 0.0546,1.58757 0.47308,3.5313 1.15723,5.37454 2.62981,11.92455 2.6402,11.74349 0.004,-0.0628 0.6633,-3.28915 1.466,-7.16965 0.81866,-3.95766 1.46703,-7.44489 1.47673,-7.94245 0.0115,-0.59302 -0.0631,-1.03183 -0.22515,-1.3239 l -0.24245,-0.43687 1.48945,-0.0678 c 0.8192,-0.0373 1.53406,-0.0375 1.58859,-4.1e-4 0.0545,0.037 -0.10752,0.38515 -0.36009,0.77353 -0.56474,0.86839 -0.59747,0.99565 -2.12382,8.25602 -2.77995,13.22344 -2.80056,13.33415 -2.7959,15.02814 0.004,1.38728 0.16329,2.50639 0.58042,4.07309 0.1498,0.56264 -0.0986,0.45077 -0.47519,-0.21403 z m 24.56727,-6.04278 c -1.93005,-0.40001 -3.07742,-1.71777 -3.83323,-4.40243 -0.28703,-1.01959 -0.30038,-1.3337 -0.36491,-8.58524 -0.0657,-7.37627 -0.0729,-7.5399 -0.36108,-8.17485 -0.16177,-0.35636 -0.25037,-0.68916 -0.1969,-0.73956 0.0857,-0.0808 3.68631,-0.0467 3.82832,0.0363 0.0307,0.0179 -0.0875,0.28096 -0.26252,0.58456 l -0.31824,0.55201 -0.038,7.06905 c -0.0417,7.76831 0.0239,8.68062 0.7221,10.03344 0.47474,0.91987 1.04167,1.26924 2.05965,1.26924 1.02145,0 1.45134,-0.23946 2.01161,-1.12055 0.8213,-1.29158 0.88898,-2.02914 0.88898,-9.68742 0,-5.32121 -0.0401,-7.00374 -0.18001,-7.54418 -0.099,-0.38256 -0.23682,-0.69556 -0.30627,-0.69556 -0.0695,0 -0.10204,-0.11857 -0.0724,-0.26349 0.0373,-0.18267 0.46399,-0.27351 1.3909,-0.29615 1.2363,-0.0302 1.66796,0.11578 1.33488,0.45142 -0.0739,0.0744 -0.23675,0.44226 -0.36191,0.81735 -0.19898,0.59626 -0.23619,1.59668 -0.29611,7.95866 l -0.0685,7.27664 -0.3763,1.33426 c -0.87001,3.08487 -2.80752,4.62237 -5.20008,4.1265 z m -18.81276,-1.04098 c 0.22517,-0.33532 0.50904,-0.92381 0.63082,-1.30777 0.31735,-1.00057 1.20873,-5.03002 2.57761,-11.65201 1.17657,-5.69165 1.24156,-6.19171 0.97626,-7.51143 -0.0828,-0.41212 -0.0272,-0.42804 1.49586,-0.42804 h 1.58191 v 0.87589 c 0,0.54305 0.31737,2.29156 0.83521,4.60142 0.45937,2.04903 1.26421,5.79616 1.78854,8.32694 1.05254,5.08032 1.40555,6.38399 1.90053,7.01881 0.18288,0.23455 0.3325,0.48482 0.3325,0.55616 0,0.0714 -0.91556,0.12972 -2.03459,0.12972 -1.11904,0 -2.0346,-0.0333 -2.0346,-0.0741 0,-0.0408 0.0974,-0.39262 0.21655,-0.78189 0.18816,-0.61496 0.19469,-0.85078 0.0499,-1.79854 -0.0917,-0.59992 -0.2721,-1.52417 -0.40093,-2.05387 -0.12882,-0.5297 -0.26754,-1.13162 -0.30826,-1.33761 -0.0665,-0.33651 -0.29193,-0.37454 -2.21976,-0.37454 h -2.14571 l -0.29425,1.35898 c -0.16184,0.74746 -0.32905,1.90866 -0.37157,2.58047 -0.0658,1.03956 -0.0348,1.31527 0.20827,1.85131 l 0.2856,0.62982 h -1.73962 -1.73964 z m 7.08123,-8.24648 c -0.0432,-0.28018 -0.45154,-2.21108 -0.90757,-4.29089 l -0.82916,-3.78149 -0.74002,3.70234 c -0.40701,2.0363 -0.7793,3.9672 -0.82732,4.2909 l -0.0873,0.58856 h 1.73491 1.73489 z m 21.84045,8.80266 c 3e-4,-0.0295 0.14798,-0.52729 0.32817,-1.10637 l 0.3276,-1.05286 v -8.81565 -8.81567 l -0.32166,-0.77284 c -0.18341,-0.44064 -0.26694,-0.828 -0.19435,-0.90114 0.14239,-0.14349 3.41117,-0.0928 3.57221,0.0555 0.0565,0.052 -0.0321,0.44808 -0.1969,0.88017 -0.29913,0.78433 -0.29963,0.80003 -0.29963,9.45341 v 8.66778 l 1.50955,0.0636 c 1.89767,0.08 2.49755,-0.17459 3.30248,-1.40109 0.33637,-0.51251 0.63908,-0.85463 0.6727,-0.76025 0.0337,0.0944 0.0138,0.70128 -0.0441,1.3487 -0.0579,0.64739 -0.10954,1.63456 -0.11481,2.19369 l -0.01,1.01659 h -4.26611 c -2.34635,0 -4.26585,-0.0241 -4.26555,-0.0535 z m 12.96305,-0.42804 c 0.53111,-0.92442 0.55668,-1.39422 0.55668,-10.23011 v -8.54361 l -1.21585,0.0601 c -0.95296,0.047 -1.35261,0.16801 -1.84829,0.55925 -0.34783,0.27454 -0.66353,0.63129 -0.70153,0.79275 -0.038,0.16148 -0.14038,0.29359 -0.22751,0.29359 -0.16581,0 -0.14336,-2.06048 0.0356,-3.27497 l 0.0884,-0.59973 5.15527,-0.0423 c 4.45884,-0.0367 5.17209,8.1e-4 5.27978,0.27871 0.17135,0.4418 0.16533,3.63832 -0.007,3.63832 -0.0745,0 -0.16834,-0.14003 -0.20862,-0.31119 -0.15487,-0.65804 -1.18529,-1.21679 -2.47538,-1.34227 l -1.24982,-0.12158 v 8.45327 c 0,8.78885 0.0351,9.4329 0.56613,10.38981 l 0.26722,0.48155 h -2.146 -2.14599 z"
       id="path3"
       sodipodi:nodetypes="sssscsssscssscsssscsssssssssscsssssssssssscsssssssscsssssssssssscssscccscscssccccsscccssssscssssscssssscssssscccssscsscccs" /><path
       style="fill:#d72925;fill-opacity:1;stroke-width:0.508582"
       d="m 137.3566,161.04546 c -2.7293,-0.44549 -4.5814,-2.12136 -6.00824,-5.43654 -1.04032,-2.41709 -1.65172,-3.88339 -1.94821,-4.67231 -0.39274,-1.04498 -0.5001,-1.16882 -1.06424,-1.22761 l -0.44761,-0.0467 -0.0343,3.24624 c -0.0376,3.5459 0.0952,4.58989 0.62357,4.90297 0.14523,0.086 0.24139,0.18153 0.2137,0.21219 -0.0278,0.0307 -1.12607,0.0892 -2.44083,0.13008 -2.25816,0.0702 -2.70928,0.007 -2.21187,-0.30792 0.0982,-0.0623 0.31405,-0.36808 0.47959,-0.67956 l 0.30093,-0.5663 v -7.29163 c 0,-7.93337 -0.008,-8.03852 -0.71192,-8.6937 -0.20631,-0.19221 -0.37512,-0.38797 -0.37512,-0.43505 0,-0.0471 1.65454,-0.0542 3.67678,-0.016 3.93382,0.0745 4.36977,0.14245 5.46187,0.85101 0.60275,0.39106 1.20713,1.24198 1.45578,2.04967 0.23792,0.77281 0.18278,2.30814 -0.11448,3.18776 -0.32828,0.97137 -1.24246,2.11364 -2.05755,2.57092 -0.34167,0.19168 -0.62123,0.37246 -0.62123,0.40173 0,0.14043 2.74118,6.2314 3.22355,7.16284 1.32865,2.56554 2.29008,3.60989 3.97302,4.31565 0.33567,0.14078 0.59465,0.27044 0.57549,0.28817 -0.13423,0.12415 -1.31778,0.15697 -1.94858,0.054 z m -7.14934,-13.33247 c 1.0379,-0.72537 1.39321,-1.57534 1.29484,-3.09749 -0.11315,-1.75085 -1.00753,-2.65863 -2.74072,-2.78178 l -0.93702,-0.0666 v 3.2229 3.2229 l 0.92813,-0.0659 c 0.71029,-0.0505 1.05172,-0.15233 1.45477,-0.43402 z m -3.406,-1.94422 c 0,-0.0779 -0.0575,-0.14158 -0.1279,-0.14158 -0.0703,0 -0.12788,0.0637 -0.12788,0.14158 0,0.0779 0.0575,0.14159 0.12788,0.14159 0.0703,0 0.1279,-0.0637 0.1279,-0.14159 z m -55.41912,14.86665 c -1.771282,-0.34909 -3.605433,-1.21772 -4.37852,-2.0736 -0.941922,-1.0428 -0.943315,-1.05291 -0.946466,-6.86279 -0.0029,-5.03271 0.005,-5.19505 0.26225,-5.55721 l 0.265059,-0.37305 h 7.071265 c 6.960161,0 7.076559,0.005 7.408233,0.29345 l 0.336968,0.29344 v 5.27136 5.27136 l -0.321013,0.71317 c -0.541161,1.20229 -1.674431,2.00685 -3.785197,2.6873 -1.052501,0.33929 -1.454384,0.39162 -3.247361,0.42289 -1.125414,0.0196 -2.324761,-0.0192 -2.665218,-0.0863 z m 7.141306,-1.13291 c 0.04345,-0.0779 0.01808,-0.14158 -0.0564,-0.14158 -0.07449,0 -0.135437,0.0637 -0.135437,0.14158 0,0.0779 0.02538,0.14159 0.0564,0.14159 0.03103,0 0.09196,-0.0637 0.135437,-0.14159 z m -9.842094,-2.03444 c 0.04447,-0.26235 0.06145,-0.6287 0.03775,-0.81411 -0.0393,-0.30764 -0.111442,-0.34075 -0.825095,-0.37877 l -0.782033,-0.0416 -0.06816,0.66948 c -0.09941,0.97638 -0.04843,1.04206 0.808835,1.04206 h 0.747854 z m 11.760417,-0.37251 v -0.77872 H 79.674441 78.90711 l -0.03853,0.82106 -0.03853,0.82107 0.805868,-0.0424 0.805871,-0.0424 z m -5.312189,-0.74332 c -0.0023,-0.0973 -0.16932,-0.93446 -0.370367,-1.86028 l -0.365544,-1.6833 0.498259,-0.52473 c 0.442645,-0.46618 0.498258,-0.59982 0.498258,-1.19736 0,-1.15256 -0.639026,-1.91976 -1.599007,-1.91976 -1.691689,0 -2.357852,2.21003 -1.0179,3.37692 l 0.329633,0.28706 -0.337415,1.60144 c -0.185579,0.8808 -0.365417,1.71295 -0.399639,1.84922 -0.05656,0.2252 0.06673,0.24778 1.353161,0.24778 1.049629,0 1.414143,-0.0457 1.410561,-0.17699 z m -6.719759,-1.4664 c 0.153061,-0.065 0.202291,-0.2907 0.202291,-0.92736 v -0.84142 l -0.735355,0.0425 -0.735361,0.0425 -0.03963,0.68994 c -0.0218,0.37946 -0.0092,0.77766 0.02794,0.8849 0.06973,0.20118 0.897261,0.27166 1.280083,0.10902 z m 11.910452,-0.0482 c 0.06682,-0.0738 0.101625,-0.49093 0.07734,-0.92697 l -0.04418,-0.79279 -0.72317,0.0421 -0.723175,0.0421 -0.03809,0.8849 -0.03809,0.8849 h 0.683911 c 0.376148,0 0.738579,-0.0604 0.805404,-0.13416 z m -11.733751,-3.8656 0.03833,-0.81412 h -0.773716 -0.77371 v 0.75512 c 0,0.41532 0.04094,0.80046 0.091,0.85587 0.05006,0.0554 0.380962,0.0819 0.735359,0.059 l 0.644354,-0.0417 z m 11.791299,0.0353 v -0.84952 h -0.767324 -0.76733 v 0.75513 c 0,0.41531 0.03838,0.79759 0.08525,0.8495 0.04689,0.0519 0.392191,0.0944 0.767329,0.0944 h 0.682071 z m -11.765709,-3.12197 v -0.85658 l -0.735355,0.0425 -0.735361,0.0425 -0.03838,0.81412 -0.03833,0.81412 h 0.773715 0.77371 z m 11.765709,0.007 v -0.8495 h -0.767324 -0.76733 v 0.8495 0.84952 h 0.76733 0.767324 z m 15.218701,12.74049 c -1.326516,-0.25455 -2.68775,-1.08754 -3.505388,-2.14506 -0.555943,-0.71907 -1.457592,-2.64468 -2.441954,-5.2152 -0.402578,-1.05126 -0.877138,-2.27774 -1.054583,-2.7255 l -0.322632,-0.81412 h -0.566136 -0.566137 l 0.04008,3.50422 c 0.03557,3.1113 0.06712,3.55981 0.281207,3.99979 0.132624,0.27254 0.319659,0.54649 0.415639,0.60877 0.09598,0.0623 0.174366,0.15783 0.174193,0.21238 -1.7e-4,0.0545 -1.064841,0.10631 -2.365932,0.11507 -1.301091,0.008 -2.365622,-0.0292 -2.365622,-0.0843 0,-0.0551 0.115677,-0.21607 0.257054,-0.35772 0.591957,-0.59309 0.638216,-1.21388 0.637451,-8.5549 -4.73e-4,-4.55489 -0.0481,-7.06554 -0.141068,-7.43628 -0.0772,-0.30782 -0.330093,-0.76975 -0.561993,-1.02648 -0.231906,-0.25675 -0.413011,-0.47477 -0.402459,-0.48452 0.104173,-0.0963 4.978961,-0.0896 6.15782,0.008 2.403048,0.19982 3.54613,0.82455 4.252957,2.32434 0.467774,0.99255 0.488868,2.60118 0.05003,3.81395 -0.352401,0.97386 -1.339348,2.13559 -2.152694,2.5339 -0.303422,0.14859 -0.551679,0.28712 -0.551679,0.30784 0,0.0207 0.15104,0.38409 0.335639,0.80748 0.184598,0.42341 0.708089,1.66181 1.16331,2.75202 1.341074,3.21172 2.184483,4.95454 2.729268,5.63973 0.727951,0.91557 1.900874,1.74022 2.775108,1.9511 0.683195,0.16481 0.707402,0.18389 0.350254,0.27613 -0.511074,0.13199 -1.906708,0.12604 -2.621716,-0.0111 z M 85.493353,149.95387 c 0,-0.0343 -0.05755,-0.10182 -0.127887,-0.14994 -0.07033,-0.0481 -0.127891,-0.02 -0.127891,0.0625 0,0.0825 0.05755,0.14994 0.127891,0.14994 0.07034,0 0.127887,-0.0281 0.127887,-0.0625 z m 3.740218,-2.04593 c 2.05608,-0.97573 2.321235,-4.30486 0.445147,-5.58898 -0.488176,-0.33414 -0.795359,-0.42909 -1.5651,-0.48378 l -0.957719,-0.0681 v 3.20428 3.20427 h 0.756729 c 0.458044,0 0.979427,-0.10567 1.320943,-0.26775 z m 20.558549,12.72488 c -1.80073,-0.16701 -3.30655,-1.09599 -4.42586,-2.73041 -0.62612,-0.91427 -2.06336,-4.05411 -3.02653,-6.61185 l -0.55982,-1.48663 h -0.56591 -0.56588 v 3.46882 c 0,3.64414 0.0478,3.98717 0.631,4.52297 0.11015,0.10121 0.20018,0.224 0.20009,0.27286 -10e-5,0.0488 -1.09355,0.097 -2.42988,0.10702 -1.336341,0.01 -2.429703,-9.4e-4 -2.429703,-0.0245 0,-0.0235 0.165331,-0.22569 0.36739,-0.44939 0.624915,-0.69184 0.683842,-1.53636 0.6351,-9.10125 -0.04802,-7.44762 -0.05327,-7.49671 -0.877535,-8.05161 -0.221088,-0.14886 -0.354034,-0.30215 -0.295435,-0.34066 0.05862,-0.0385 1.487735,-0.0789 3.175859,-0.0898 4.576344,-0.0296 5.780204,0.26833 6.890924,1.70493 1.28502,1.66204 1.05385,4.46451 -0.50678,6.14372 -0.33187,0.35707 -0.825,0.7744 -1.09586,0.92738 -0.27085,0.15298 -0.49248,0.34755 -0.49248,0.43237 0,0.34119 3.22627,7.42393 3.75617,8.24606 0.90416,1.40278 1.71399,2.13994 2.98821,2.72005 0.56529,0.25736 0.65755,0.33635 0.39585,0.33893 -0.18768,0.002 -0.41787,0.0255 -0.51155,0.0526 -0.0937,0.0271 -0.6595,0.004 -1.25737,-0.0516 z m -7.1896,-12.67701 c 1.72442,-0.79748 2.34184,-3.32104 1.21955,-4.98467 -0.45305,-0.67161 -1.19538,-1.03662 -2.29546,-1.12873 l -0.94244,-0.0789 v 3.2061 3.20609 h 0.77144 c 0.42429,0 0.9854,-0.0989 1.24691,-0.21988 z m 3.63218,-1.65139 c -0.0918,-0.1016 -0.15133,-0.10997 -0.15133,-0.0212 0,0.18898 0.15123,0.35642 0.23658,0.26193 0.0363,-0.0402 -0.002,-0.14854 -0.0853,-0.24069 z m 8.28929,12.19403 c -0.86534,-0.18571 -2.30899,-1.03038 -2.93161,-1.71527 -2.06137,-2.26749 -2.9071,-6.14466 -2.18642,-10.02334 0.56506,-3.04108 2.23841,-5.46381 4.35616,-6.30694 0.95594,-0.3806 2.74,-0.50993 3.69012,-0.26752 1.80812,0.46131 3.31642,1.83385 4.15723,3.783 0.64508,1.49543 0.84956,2.50087 0.92766,4.56128 0.0583,1.53867 0.0254,2.07286 -0.20053,3.25645 -0.93026,4.87296 -4.01882,7.52654 -7.81261,6.71234 z m 2.37628,-1.67154 c 1.09383,-0.55 2.01557,-2.48732 2.36494,-4.97069 0.19966,-1.41917 0.0843,-5.1706 -0.19374,-6.29985 -0.67336,-2.73502 -1.94264,-4.11864 -3.50942,-3.82559 -2.05789,0.38492 -3.40867,4.0929 -3.14728,8.63948 0.19596,3.40821 1.02832,5.60738 2.41107,6.37023 0.76172,0.42024 1.36089,0.4452 2.07443,0.0864 z m -5.82927,-6.52743 c 0,-0.0779 -0.0253,-0.14158 -0.0564,-0.14158 -0.031,0 -0.092,0.0637 -0.13543,0.14158 -0.0435,0.0779 -0.0181,0.14159 0.0564,0.14159 0.0745,0 0.13544,-0.0637 0.13544,-0.14159 z m -59.723798,7.75637 c 0,-0.0658 0.08878,-0.15738 0.197279,-0.20348 0.108505,-0.0461 0.324316,-0.34673 0.479582,-0.66808 0.267116,-0.55285 0.284536,-0.78527 0.323849,-4.32112 l 0.04155,-3.73685 -1.1364,0.0717 c -0.625021,0.0395 -1.265567,0.14827 -1.423436,0.24181 -0.15787,0.0935 -0.35262,0.14586 -0.432779,0.11628 -0.210779,-0.0778 1.242129,-0.96798 2.14219,-1.31252 l 0.767329,-0.29373 v -3.10815 c 0,-3.39577 -0.09242,-3.91174 -0.772923,-4.31492 -0.172557,-0.10225 -0.295192,-0.20643 -0.272522,-0.23153 0.112783,-0.12486 4.687532,-0.16777 4.756285,-0.0446 0.04233,0.0758 0.02015,0.13786 -0.04929,0.13786 -0.06943,0 -0.246633,0.35622 -0.393772,0.7916 -0.244571,0.72368 -0.264562,1.04076 -0.232993,3.69546 l 0.03453,2.90385 0.991134,-0.007 c 0.545124,-0.004 1.572179,-0.0104 2.282348,-0.0142 l 1.291215,-0.007 -0.04719,-3.15027 c -0.03924,-2.61976 -0.0836,-3.22487 -0.263378,-3.59326 -0.118905,-0.24365 -0.304642,-0.48057 -0.412752,-0.52651 -0.108109,-0.0459 -0.196382,-0.13328 -0.196163,-0.19413 4.5e-4,-0.12478 4.55308,-0.23269 4.72933,-0.11209 0.06243,0.0427 -0.02238,0.22809 -0.18845,0.41196 -0.662512,0.73347 -0.704692,1.25551 -0.703919,8.71203 4.45e-4,4.29341 0.05034,7.07436 0.132803,7.40311 0.07265,0.28961 0.273752,0.71294 0.446896,0.94074 0.173141,0.22781 0.314808,0.44495 0.314808,0.48252 0,0.0376 -0.359689,0.0531 -0.799303,0.0344 -0.439617,-0.0187 -1.517092,-0.0427 -2.39439,-0.0533 -1.458497,-0.0178 -1.571585,-0.0377 -1.32064,-0.23226 0.535264,-0.41506 0.613739,-1.03958 0.613739,-4.88424 v -3.61042 h -2.238044 -2.238043 v 3.68122 c 0,3.55623 0.0099,3.70163 0.290347,4.28294 0.159692,0.33095 0.346728,0.60174 0.415638,0.60174 0.06891,0 0.125289,0.0709 0.125289,0.15761 0,0.10634 -0.218432,0.13049 -0.671414,0.0743 -0.369277,-0.0458 -1.031098,-0.0849 -1.470715,-0.0868 -0.67322,-0.003 -0.799943,-0.0425 -0.803369,-0.25121 -0.0038,-0.22546 -0.01821,-0.22722 -0.161092,-0.0194 -0.168131,0.24444 -1.753163,0.45821 -1.753163,0.23645 z m 2.685653,-4.6415 c 0,-0.0779 -0.06094,-0.14158 -0.135436,-0.14158 -0.07449,0 -0.09987,0.0637 -0.0564,0.14158 0.04347,0.0779 0.104418,0.14159 0.135435,0.14159 0.03102,0 0.0564,-0.0637 0.0564,-0.14159 z m 0.255777,-9.48618 c 0,-0.0779 -0.05755,-0.14159 -0.127889,-0.14159 -0.07033,0 -0.127888,0.0637 -0.127888,0.14159 0,0.0779 0.05755,0.14158 0.127888,0.14158 0.07033,0 0.127889,-0.0637 0.127889,-0.14158 z m 13.774367,0.61914 c -0.04968,-0.055 -0.09033,-0.87909 -0.09033,-1.8313 0,-1.33438 0.05895,-1.94261 0.257146,-2.653 0.474734,-1.70163 1.754697,-3.21674 3.329141,-3.94077 0.584383,-0.26874 0.939738,-0.32213 2.183564,-0.32809 l 1.485603,-0.007 1.108973,0.62228 c 2.303352,1.2925 3.212344,3.2349 3.121076,6.66934 l -0.03948,1.48664 -0.88377,0.0424 c -0.581566,0.0279 -0.915856,-0.0151 -0.9776,-0.1257 -0.0516,-0.0924 -0.101408,-0.90792 -0.11067,-1.81219 -0.01464,-1.43051 -0.05728,-1.7361 -0.328039,-2.35204 -0.877844,-1.99698 -2.556981,-2.84634 -4.484892,-2.26858 -0.648472,0.19432 -0.960567,0.3874 -1.41277,0.87396 -0.9175,0.9872 -1.123545,1.63969 -1.200482,3.80156 l -0.0655,1.8406 -0.900804,0.041 c -0.495446,0.0225 -0.941454,-0.004 -0.991133,-0.059 z"
       id="path2"
       sodipodi:nodetypes="sscsssssscssssssssssssssssscccssssssscssscsccccssscsscssscccsscsccscccccccsssssscsssccssccsccccscccccsccccccsssccccccssscccccccccccccsccccccsssscccssssssssssscsssssssssssssssscsscccsccsscccsssssssssssssssscscssscccssssssssssssssssssssssssscssscssccssscsssssssccccssssssssssscsscccsssssccssssssssssssscsssscsscssssssscccccs" /><path
       style="fill:#ccc9c3;fill-opacity:1;stroke-width:1.39554"
       d="m 17.083842,159.42828 c 0,-0.26516 0.167498,-0.78992 0.372229,-1.16608 0.301334,-0.55369 0.37222,-2.29297 0.37222,-9.13257 v -8.44864 H 17.12087 c -0.976683,0 -2.202963,1.01624 -2.366765,1.96136 -0.237098,1.36793 -0.648062,0.84947 -0.648062,-0.81758 0,-3.40675 -0.08779,-3.3414 4.488522,-3.3414 h 4.187268 l 0.151862,1.51086 c 0.08357,0.83098 0.204845,1.94356 0.269596,2.47237 0.07559,0.6176 -0.02138,0.96147 -0.271209,0.96147 -0.213923,0 -0.388951,-0.25985 -0.388951,-0.57745 0,-0.74823 -1.539216,-2.16963 -2.349448,-2.16963 h -0.628348 v 8.79061 c 0,5.49413 0.09304,8.7906 0.248156,8.7906 0.136482,0 0.248147,0.37086 0.248147,0.82409 0,0.64099 -0.330869,0.82415 -1.488898,0.82415 -0.818889,0 -1.488898,-0.21693 -1.488898,-0.48216 z m 10.918586,-0.30954 c 0,-0.43544 0.111665,-0.94451 0.248147,-1.13124 0.148036,-0.20251 0.248146,-3.74922 0.248146,-8.7906 0,-5.04138 -0.10011,-8.58803 -0.248146,-8.79059 -0.136482,-0.18674 -0.248147,-0.69583 -0.248147,-1.13127 0,-0.59335 0.341917,-0.79167 1.364825,-0.79167 1.022898,0 1.364815,0.19827 1.364815,0.79167 0,0.43544 -0.111665,0.94449 -0.248146,1.13127 -0.136482,0.18673 -0.248147,1.93197 -0.248147,3.8783 v 3.53875 h 1.985191 1.9852 v -3.81347 c 0,-2.09739 -0.111665,-3.96627 -0.248147,-4.153 -0.613182,-0.83905 -0.130376,-1.37352 1.240742,-1.37352 1.371127,0 1.853933,0.53447 1.240751,1.37352 -0.149096,0.20383 -0.248146,3.93234 -0.248146,9.34001 0,5.40767 0.09905,9.13598 0.248146,9.34001 0.596094,0.81566 0.148496,1.37353 -1.102028,1.37353 -1.288508,0 -1.924021,-0.62839 -1.383516,-1.368 0.138713,-0.18985 0.252198,-2.18477 0.252198,-4.43327 V 150.021 h -1.9852 -1.985191 v 3.81347 c 0,2.09739 0.111665,3.96627 0.248147,4.15303 0.136481,0.18673 0.248146,0.6958 0.248146,1.13124 0,0.59335 -0.341917,0.7917 -1.364815,0.7917 -1.022908,0 -1.364825,-0.19828 -1.364825,-0.7917 z m 14.152413,0.37964 c 0.0047,-0.22663 0.17184,-0.89197 0.37223,-1.47855 0.280391,-0.82076 0.364332,-2.8535 0.364332,-8.82293 0,-5.96942 -0.08394,-8.00218 -0.364332,-8.82295 -0.20039,-0.58656 -0.367887,-1.25189 -0.37223,-1.47853 -0.0047,-0.22665 1.391452,-0.41205 3.101766,-0.41205 2.271331,0 3.135426,0.18517 3.205224,0.68676 0.523735,3.76397 0.307205,4.61424 -0.664607,2.6097 -0.394081,-0.81288 -0.875715,-1.09884 -1.850744,-1.09884 h -1.318033 v 3.5712 3.57117 h 0.962217 c 0.552566,0 1.093728,-0.35087 1.271129,-0.82412 0.538442,-1.43643 0.744449,-0.90429 0.744449,1.92294 0,2.63158 -0.352468,3.66681 -0.654711,1.92294 -0.09697,-0.55948 -0.49288,-0.82412 -1.232958,-0.82412 h -1.090126 v 3.9099 3.9099 l 1.604952,-0.22626 c 1.259603,-0.17763 1.73997,-0.50709 2.232371,-1.53128 0.809548,-1.68384 0.98634,-1.22503 0.607292,1.57605 l -0.304626,2.25113 H 45.45769 c -1.82091,0 -3.307191,-0.18541 -3.302849,-0.41206 z"
       id="path1"
       sodipodi:nodetypes="ssscsssscccssscsssssscscssscscccssscssssscccscssscssscscsscccssssscccssscsc" /></g></svg>
